<?xml version="1.0" standalone="no"?><!DOCTYPE svg PUBLIC "-//W3C//DTD SVG 1.1//EN" "http://www.w3.org/Graphics/SVG/1.1/DTD/svg11.dtd"><svg xmlns:xlink="http://www.w3.org/1999/xlink" xmlns="http://www.w3.org/2000/svg" version="1.1" width="200" height="200" viewBox="0 0 200 200"><defs><style type="text/css"><![CDATA[

]]></style></defs><g class="transform-group"><g transform="scale(0.1953125, 0.1953125)"><path d="M321.920874 477.17996l-88.434122-88.434122c-48.921199-48.921199-48.919153-128.23664 0.001023-177.157839l12.654204-12.656251c48.921199-48.919153 128.235616-48.919153 177.156816 0L550.259372 325.892325c48.922223 48.922223 46.805002 130.355907-2.116197 179.27506l-9.893324 9.894348c-2.486634 1.777483-4.875031 3.686972-7.021927 5.852288-9.607822 9.692756-15.558347 23.020296-15.558347 37.746696 0 29.626761 24.016996 53.645804 53.645804 53.645804 10.829649 0 20.470217-2.470261 30.352285-9.882068 8.117888-7.411807 14.403035-14.268982 14.403035-14.268982l22.923082-22.923082c83.607186-83.606163 83.607186-219.160465 0-302.766628L485.395062 110.868063c-83.606163-83.606163-219.160465-83.606163-302.766628 0l-37.440727 37.440727c-83.606163 83.606163-83.606163 219.160465 0 302.766628L248.447489 554.335201l3.9121 3.9121c9.509585 8.576329 21.975501 13.942547 35.788088 13.942547 29.628808 0 53.645804-24.016996 53.645804-53.645804 0-12.872169-4.719488-24.524556-12.276604-33.770128C327.236949 481.987453 324.70836 479.458863 321.920874 477.17996zM914.662803 535.061228 811.403021 431.801447l-3.9121-3.9121c-9.509585-8.576329-21.975501-13.942547-35.788088-13.942547-29.628808 0-53.645804 24.016996-53.645804 53.645804 0 12.872169 4.719488 24.524556 12.276604 33.770128 2.278903 2.787486 4.807493 5.316076 7.594979 7.594979l88.434122 88.434122c48.921199 48.921199 48.919153 128.23664-0.001023 177.157839l-12.654204 12.656251c-48.921199 48.919153-128.235616 48.919153-177.156816 0l-126.960577-126.9616c-48.922223-48.922223-46.805002-130.355907 2.116197-179.27506l9.893324-9.894348c2.486634-1.777483 4.875031-3.686972 7.020904-5.852288 9.607822-9.692756 15.558347-23.020296 15.558347-37.746696 0-29.626761-24.016996-53.645804-53.645804-53.645804-10.829649 0-20.470217 2.470261-30.352285 9.882068-8.117888 7.411807-14.403035 14.268982-14.403035 14.268982l-22.923082 22.923082c-83.607186 83.606163-83.607186 219.160465 0 302.766628L574.454424 875.269607c83.606163 83.606163 219.160465 83.606163 302.766628 0l37.440727-37.440727C998.268966 754.221694 998.268966 618.667392 914.662803 535.061228z" fill="#5f584d"></path></g></g></svg>